# xmcd
#
# Track frame offsets: 
#        150
#        20147
#        39982
#        51870
#        69421
#        84863
#        104744
#        123040
#        149435
#        171791
#        198584
#        217190
#        233466
#        254711
#        276790
#        301080
#        320161
#
# Disc length: 4498 seconds
#
# Revision: 0
# Processed by: cddbd v1.4PL0 Copyright (c) Steve Scherf et al.
# Submitted via: ExactAudioCopy v0.95a3
#
DISCID=f9119011
DTITLE=Maryla Rodowicz - Best CD2
DYEAR=1900
DGENRE=Pop
TTITLE0=Remedium
TTITLE1=Hej, zeglarzu
TTITLE2=Pejzaz horyzontalny
TTITLE3=Wariatka tanczy
TTITLE4=Cyrk noca
TTITLE5=Wielka woda
TTITLE6=Golebi song
TTITLE7=Rozmowa przez ocean
TTITLE8=Niech zyje bal
TTITLE9=Polska madonna
TTITLE10=Swiety spokoj
TTITLE11=Czlowiek czlowiek
TTITLE12=W szeregu
TTITLE13=Dobranoc panowie
TTITLE14=Tango na glos
TTITLE15=To juz bylo
TTITLE16=Dworzec
EXTD=
EXTT0=
EXTT1=
EXTT2=
EXTT3=
EXTT4=
EXTT5=
EXTT6=
EXTT7=
EXTT8=
EXTT9=
EXTT10=
EXTT11=
EXTT12=
EXTT13=
EXTT14=
EXTT15=
EXTT16=
PLAYORDER=
